<svg width="169" height="169" viewBox="0 0 169 169" fill="none" xmlns="http://www.w3.org/2000/svg">
<circle cx="84.5" cy="84.5" r="84.5" fill="#36FA84"/>
<path fill-rule="evenodd" clip-rule="evenodd" d="M109.142 59.5048C95.5324 46.0973 73.4676 46.0973 59.8584 59.5048C46.2492 72.9123 46.2492 94.6502 59.8584 108.058C62.524 110.684 62.524 114.942 59.8584 117.568C57.1928 120.194 52.8709 120.194 50.2053 117.568C31.2649 98.908 31.2649 68.6546 50.2053 49.9948C69.1457 31.3351 99.8543 31.3351 118.795 49.9948C137.735 68.6546 137.735 98.908 118.795 117.568C116.129 120.194 111.807 120.194 109.142 117.568C106.476 114.942 106.476 110.684 109.142 108.058C122.751 94.6502 122.751 72.9123 109.142 59.5048ZM84.4998 85.5674C88.2695 85.5674 91.3255 88.4307 91.3255 91.9626V117.477C91.3255 121.009 88.2695 123.872 84.4998 123.872C80.73 123.872 77.674 121.009 77.674 117.477V91.9626C77.674 88.4307 80.73 85.5674 84.4998 85.5674ZM91.3255 72.7342C91.3255 69.0203 88.2695 66.0096 84.4998 66.0096C80.73 66.0096 77.674 69.0203 77.674 72.7342V72.8265C77.674 76.5404 80.73 79.5511 84.4998 79.5511C88.2695 79.5511 91.3255 76.5404 91.3255 72.8265V72.7342Z" fill="white"/>
</svg>
