<svg width="383" height="150" viewBox="0 0 383 150" fill="none" xmlns="http://www.w3.org/2000/svg">
<g clip-path="url(#clip0_1_189)">
<path fill-rule="evenodd" clip-rule="evenodd" d="M75.0773 139.999C39.2538 140.156 9.84419 110.746 10.0006 74.7653C10.1571 39.0978 39.2538 9.84419 75.3902 10.0006C111.057 10.1571 140.31 39.4107 139.998 75.5475C139.841 111.215 110.901 140.156 75.0773 139.999Z" fill="#0090FF"/>
<path d="M37.8672 128.34C48.438 135.735 61.2821 140.06 75.0773 139.999C110.901 140.156 139.841 111.215 139.998 75.5474C140.209 51.1578 126.952 29.9037 107.345 18.6145C87.9757 29.8687 74.9524 50.842 74.9524 74.8572L74.9504 74.8572C74.8311 90.0972 69.4672 104.088 60.5746 115.114C48.2514 120.391 37.3211 108.45 33.4983 91.721C32.5527 95.6983 32.0525 99.8452 32.0525 104.107C32.0525 112.749 34.1087 120.916 37.764 128.157C37.7986 128.217 37.833 128.278 37.8672 128.34Z" fill="#15355F"/>
<path d="M37.7952 128.274C32.7553 124.741 28.2335 120.508 24.3733 115.72C20.9821 108.693 19.0837 100.828 19.0837 92.5248C19.0837 73.8292 28.7076 57.3547 43.3273 47.6743C36.2986 56.1809 32.0837 67.0419 32.0837 78.8747C32.0837 83.3616 32.5935 87.744 33.5293 91.8394C32.5839 95.8164 32.0837 99.963 32.0837 104.225C32.0837 112.867 34.1399 121.034 37.7952 128.274Z" fill="#1B477F"/>
<path d="M10.2646 80.7627C12.9314 53.4256 36.2449 32.0525 64.6104 32.0525C65.0885 32.0525 65.5652 32.0586 66.0404 32.0706C57.0594 35.0846 49.2251 40.5473 43.354 47.6528C28.7344 57.3332 19.1105 73.8077 19.1105 92.5032C19.1105 100.807 21.0088 108.672 24.4001 115.698C16.5455 105.955 11.4303 93.9089 10.2646 80.7627Z" fill="#255FAA"/>
<path fill-rule="evenodd" clip-rule="evenodd" d="M84.6914 16.1999C84.7335 16.2643 84.7564 16.3394 84.7574 16.4164C84.9427 21.7891 78.5565 32.0399 71.2182 36.9738C69.918 37.8582 68.5433 38.6276 67.1096 39.2733C67.1084 39.285 67.1071 39.2966 67.1059 39.3083C63.837 40.3665 60.1718 40.9038 56.0895 40.7029C55.5661 40.594 55.0482 40.4597 54.5378 40.3004C54.1649 40.1898 53.8424 39.9524 53.6258 39.6293L51.3423 36.2599C51.1228 35.9387 51.0227 35.5508 51.0594 35.1635C51.1041 34.6043 51.1773 34.0476 51.2785 33.4958L51.2063 33.4899C52.3334 30.1853 54.0697 26.8098 56.6214 23.8541C56.6533 23.863 56.6852 23.8721 56.717 23.8812C57.85 22.7945 59.0754 21.8086 60.3795 20.9347C67.7004 15.9879 79.8501 13.9069 84.5195 16.0527C84.5896 16.0844 84.6493 16.1355 84.6914 16.1999ZM65.7877 26.2123C65.7922 27.0215 66.0367 27.8112 66.4901 28.4815C66.7906 28.9267 67.1759 29.3084 67.6241 29.6046C68.0722 29.9007 68.5743 30.1057 69.1017 30.2076C69.6291 30.3096 70.1714 30.3066 70.6977 30.1987C71.2239 30.0909 71.7237 29.8804 72.1685 29.5793C72.8391 29.1263 73.3602 28.4846 73.666 27.7354C73.9719 26.9861 74.0486 26.1631 73.8866 25.3702C73.7246 24.5774 73.3311 23.8504 72.7559 23.2812C72.1806 22.712 71.4495 22.3262 70.655 22.1726C69.8605 22.0191 69.0383 22.1045 68.2923 22.4183C67.5464 22.7321 66.9103 23.26 66.4645 23.9354C66.0186 24.6107 65.7831 25.4031 65.7877 26.2123Z" fill="white"/>
<path d="M51.052 35.325C51.0529 35.6574 51.1533 35.9833 51.3423 36.2598L53.6258 39.6293C53.8424 39.9524 54.1649 40.1897 54.5378 40.3004C55.0482 40.4596 55.566 40.5939 56.0895 40.7028C60.1718 40.9038 63.837 40.3664 67.1059 39.3082C67.1071 39.2966 67.1084 39.2849 67.1096 39.2732C68.5433 38.6275 69.918 37.8581 71.2182 36.9737C78.5565 32.0398 84.9427 21.789 84.7574 16.4163C84.7564 16.3393 84.7335 16.2642 84.6914 16.1998C84.6492 16.1354 84.5896 16.0843 84.5195 16.0526C84.4813 16.035 84.4425 16.0177 84.4033 16.0007C79.3746 25.9753 68.9875 36.8049 51.052 35.325Z" fill="#C3C6CF"/>
<path d="M67.1059 39.3083C63.837 40.3665 60.1718 40.9039 56.0895 40.7029C56.1122 40.7076 56.135 40.7123 56.1577 40.7169L53.9455 47.8588C53.9082 47.9803 53.8995 48.1087 53.9201 48.2341C53.9407 48.3594 53.9901 48.4783 54.0643 48.5814C54.1386 48.6844 54.2357 48.7689 54.3481 48.8282C54.4605 48.8874 54.5851 48.9198 54.7121 48.9228C57.025 48.9967 62.5152 48.6839 65.3854 44.5191C66.3939 43.0515 66.9017 41.2101 67.1059 39.3083Z" fill="#5A5E66"/>
<path d="M56.6214 23.854C54.7917 23.3404 52.9085 23.1287 51.1901 23.5131C46.2534 24.6361 43.9187 29.605 43.1151 31.7812C43.0704 31.9002 43.0539 32.028 43.0669 32.1544C43.0799 32.2808 43.1221 32.4025 43.1901 32.5099C43.2581 32.6173 43.3501 32.7074 43.4588 32.7732C43.5676 32.839 43.6901 32.8787 43.8168 32.8891L51.2063 33.4898C52.3334 30.1852 54.0697 26.8097 56.6214 23.854Z" fill="#5A5E66"/>
<path d="M31.1627 117.148L29.5188 116.843L29.1505 115.109L28.7822 116.843L27.1437 117.148L28.7769 117.548L29.1505 119.181L29.5241 117.548L31.1627 117.148Z" fill="#ECF7FF"/>
<path d="M117.623 88.645L114.968 88.1594L114.373 85.3907L113.778 88.1594L111.123 88.645L113.77 89.284L114.373 91.8908L114.977 89.284L117.623 88.645Z" fill="#ECF7FF"/>
<path d="M85.1232 113.341L82.468 112.856L81.8732 110.091L81.2784 112.856L78.6232 113.341L81.2697 113.979L81.8732 116.591L82.4766 113.979L85.1232 113.341Z" fill="#ECF7FF"/>
<path d="M74.7791 136.826C74.6611 136.814 74.5519 136.758 74.4726 136.67C74.3932 136.582 74.3493 136.467 74.3493 136.349C74.3493 136.23 74.3932 136.116 74.4726 136.027C74.5519 135.939 74.6611 135.884 74.7791 135.871C74.8971 135.884 75.0063 135.939 75.0856 136.027C75.165 136.116 75.2089 136.23 75.2089 136.349C75.2089 136.467 75.165 136.582 75.0856 136.67C75.0063 136.758 74.8971 136.814 74.7791 136.826Z" fill="#ECF7FF"/>
<path d="M115.423 96.6945C115.297 96.6945 115.176 96.6445 115.087 96.5554C114.998 96.4663 114.948 96.3455 114.948 96.2195C114.948 96.0935 114.998 95.9727 115.087 95.8836C115.176 95.7945 115.297 95.7445 115.423 95.7445C115.549 95.7445 115.67 95.7945 115.759 95.8836C115.848 95.9727 115.898 96.0935 115.898 96.2195C115.898 96.3455 115.848 96.4663 115.759 96.5554C115.67 96.6445 115.549 96.6945 115.423 96.6945Z" fill="#ECF7FF"/>
<path d="M52.1115 130.582C51.9855 130.582 51.8647 130.532 51.7756 130.443C51.6865 130.354 51.6365 130.233 51.6365 130.107C51.6365 129.981 51.6865 129.86 51.7756 129.771C51.8647 129.682 51.9855 129.632 52.1115 129.632C52.2375 129.632 52.3583 129.682 52.4474 129.771C52.5365 129.86 52.5865 129.981 52.5865 130.107C52.5865 130.233 52.5365 130.354 52.4474 130.443C52.3583 130.532 52.2375 130.582 52.1115 130.582Z" fill="#ECF7FF"/>
<path d="M85.1282 122.714C85.039 122.714 84.9535 122.679 84.8904 122.616C84.8274 122.553 84.7919 122.467 84.7919 122.378C84.7919 122.289 84.8274 122.203 84.8904 122.14C84.9535 122.077 85.039 122.042 85.1282 122.042C85.2174 122.042 85.3029 122.077 85.3659 122.14C85.429 122.203 85.4644 122.289 85.4644 122.378C85.4644 122.467 85.429 122.553 85.3659 122.616C85.3029 122.679 85.2174 122.714 85.1282 122.714Z" fill="#ECF7FF"/>
<path d="M101.429 93.5562C101.339 93.5562 101.254 93.5208 101.191 93.4577C101.128 93.3946 101.092 93.3091 101.092 93.2199C101.092 93.1307 101.128 93.0452 101.191 92.9822C101.254 92.9191 101.339 92.8837 101.429 92.8837C101.518 92.8837 101.603 92.9191 101.666 92.9822C101.729 93.0452 101.765 93.1307 101.765 93.2199C101.765 93.3091 101.729 93.3946 101.666 93.4577C101.603 93.5208 101.518 93.5562 101.429 93.5562Z" fill="#ECF7FF"/>
<path d="M128.023 104.891C127.664 104.851 127.334 104.697 127.095 104.458C126.855 104.219 126.723 103.91 126.723 103.591C126.723 103.272 126.855 102.964 127.095 102.724C127.334 102.485 127.664 102.331 128.023 102.291C128.382 102.331 128.712 102.485 128.952 102.724C129.191 102.964 129.323 103.272 129.323 103.591C129.323 103.91 129.191 104.219 128.952 104.458C128.712 104.697 128.382 104.851 128.023 104.891Z" fill="#ECF7FF"/>
<path d="M96.8232 129.592C96.4784 129.592 96.1477 129.455 95.9039 129.211C95.6602 128.967 95.5232 128.636 95.5232 128.292C95.5232 127.947 95.6602 127.616 95.9039 127.372C96.1477 127.129 96.4784 126.992 96.8232 126.992C97.168 126.992 97.4986 127.129 97.7424 127.372C97.9862 127.616 98.1232 127.947 98.1232 128.292C98.1232 128.636 97.9862 128.967 97.7424 129.211C97.4986 129.455 97.168 129.592 96.8232 129.592Z" fill="#ECF7FF"/>
<path d="M122.823 58.0906C122.478 58.0906 122.148 57.9536 121.904 57.7098C121.66 57.466 121.523 57.1353 121.523 56.7906C121.523 56.4458 121.66 56.1151 121.904 55.8713C122.148 55.6275 122.478 55.4905 122.823 55.4905C123.168 55.4905 123.499 55.6275 123.742 55.8713C123.986 56.1151 124.123 56.4458 124.123 56.7906C124.123 57.1353 123.986 57.466 123.742 57.7098C123.499 57.9536 123.168 58.0906 122.823 58.0906Z" fill="#ECF7FF"/>
<path d="M112.423 52.8837L108.169 52.1067L107.216 47.6904L106.277 52.1067L102.023 52.8973L106.249 53.906L107.216 58.0906L108.197 53.906L112.423 52.8837Z" fill="#ECF7FF"/>
<path d="M101.546 74.3415C101.428 74.329 101.319 74.2733 101.239 74.1851C101.16 74.0969 101.116 73.9825 101.116 73.8638C101.116 73.7452 101.16 73.6307 101.239 73.5425C101.319 73.4543 101.428 73.3986 101.546 73.3861C101.664 73.3986 101.773 73.4543 101.852 73.5425C101.932 73.6307 101.976 73.7452 101.976 73.8638C101.976 73.9825 101.932 74.0969 101.852 74.1851C101.773 74.2733 101.664 74.329 101.546 74.3415Z" fill="#ECF7FF"/>
<path d="M82.9934 87.0126C82.8754 87.0001 82.7662 86.9444 82.6868 86.8562C82.6075 86.768 82.5636 86.6535 82.5636 86.5349C82.5636 86.4162 82.6075 86.3018 82.6868 86.2136C82.7662 86.1254 82.8754 86.0697 82.9934 86.0572C83.1114 86.0697 83.2205 86.1254 83.2999 86.2136C83.3793 86.3018 83.4232 86.4162 83.4232 86.5349C83.4232 86.6535 83.3793 86.768 83.2999 86.8562C83.2205 86.9444 83.1114 87.0001 82.9934 87.0126Z" fill="#ECF7FF"/>
<path fill-rule="evenodd" clip-rule="evenodd" d="M80.7219 67.2822C86.3535 68.0644 91.9852 68.8466 97.7732 69.6288C98.2425 67.908 98.7119 66.5001 99.1812 64.7792C93.2367 63.8406 87.605 63.0584 81.6605 62.1198C83.6941 54.9237 85.4149 48.0405 87.605 41.3138C88.3872 39.1237 89.9515 36.9335 91.6723 35.2127C93.8624 33.0226 96.8346 33.4919 98.7119 35.9949C99.494 37.09 100.276 38.185 101.058 38.9672C102.31 40.0623 104.031 40.688 105.126 39.593C105.908 38.8108 105.908 37.09 105.908 35.8385C105.908 35.3692 105.282 34.7434 104.969 34.2741C102.936 31.9276 100.12 31.1454 97.304 30.989C90.7337 30.6761 86.0407 34.1177 82.4427 39.1237C78.8447 44.1296 77.2803 49.9178 75.4031 55.7059C74.9338 57.4267 74.4645 59.1475 73.9952 61.0248C67.5814 60.0862 61.4805 59.1475 55.2231 58.3654C55.0667 60.0862 54.7538 61.6505 54.5973 63.3713C60.8547 64.3099 66.7992 65.2486 72.9002 66.1872C72.118 69.6288 71.3358 72.914 70.5537 76.1991C64.6092 75.4169 58.8211 74.6347 53.033 73.6961C52.7201 75.5734 52.5637 76.9813 52.4073 78.5457C58.1953 79.4843 63.6705 80.2665 69.3022 81.2051C69.3022 81.8308 69.3022 82.1437 69.3022 82.613C67.5814 90.2784 65.8606 97.9438 63.827 105.453C62.8884 109.051 61.324 112.492 58.3518 114.995C55.8488 117.029 53.1894 116.716 51.3122 114.213C50.5301 113.118 49.7479 111.71 48.6528 110.772C47.8707 110.146 45.9935 109.833 45.5242 110.302C44.5855 111.084 43.9598 112.649 44.1162 113.744C44.1162 114.839 45.2113 115.934 45.9935 116.716C48.9657 119.063 52.5637 119.376 56.3181 118.75C62.4191 117.498 66.6428 113.744 69.3022 108.425C71.3358 104.201 72.9002 99.6646 74.4645 95.1279C75.8724 91.0606 76.6546 86.8368 77.9061 82.613C83.8506 83.5516 89.7951 84.3338 95.7396 85.2724C96.2089 83.5516 96.6782 81.9873 97.1475 80.4229C90.8901 79.4843 84.9456 78.5457 78.8447 77.7635C79.314 73.8526 79.9397 70.7238 80.7219 67.2822Z" fill="white"/>
</g>
<path d="M172 64.2094V31.1029H193.614V35.9743H178.054V45.0549H192.195V49.7844H178.054V59.338H193.614V64.2094H172Z" fill="white"/>
<path d="M227.303 64.7769C224.875 64.7769 222.731 64.3671 220.871 63.5473C219.01 62.696 217.544 61.4978 216.472 59.9529C215.4 58.3764 214.848 56.4688 214.817 54.2302H221.202C221.265 55.7751 221.817 57.0836 222.857 58.1557C223.929 59.1961 225.395 59.7164 227.256 59.7164C228.864 59.7164 230.141 59.338 231.086 58.5813C232.032 57.7931 232.505 56.7526 232.505 55.4598C232.505 54.104 232.08 53.0478 231.228 52.2911C230.409 51.5344 229.305 50.9195 227.918 50.4466C226.53 49.9736 225.048 49.4691 223.472 48.9331C220.918 48.0503 218.963 46.9152 217.607 45.5279C216.283 44.1406 215.621 42.2961 215.621 39.9944C215.589 38.0395 216.047 36.3684 216.993 34.9811C217.97 33.5623 219.294 32.4745 220.965 31.7178C222.636 30.9295 224.56 30.5354 226.735 30.5354C228.942 30.5354 230.881 30.9295 232.553 31.7178C234.255 32.506 235.579 33.6096 236.525 35.0284C237.503 36.4473 238.023 38.1341 238.086 40.089H231.607C231.575 38.9224 231.118 37.8976 230.235 37.0148C229.384 36.1004 228.186 35.6433 226.641 35.6433C225.316 35.6117 224.197 35.9428 223.283 36.6364C222.4 37.2986 221.958 38.276 221.958 39.5687C221.958 40.6723 222.305 41.5551 222.999 42.2173C223.693 42.8479 224.639 43.3839 225.837 43.8253C227.035 44.2667 228.406 44.7396 229.951 45.2441C231.591 45.8117 233.089 46.4738 234.444 47.2305C235.8 47.9872 236.888 48.9962 237.708 50.2574C238.527 51.4871 238.937 53.0793 238.937 55.0342C238.937 56.7683 238.496 58.3764 237.613 59.8583C236.73 61.3402 235.422 62.5383 233.688 63.4527C231.953 64.3355 229.825 64.7769 227.303 64.7769Z" fill="white"/>
<path d="M259.999 64.2094V31.1029H272.248C274.897 31.1029 277.088 31.5444 278.822 32.4272C280.556 33.31 281.849 34.5239 282.7 36.0689C283.552 37.6139 283.977 39.348 283.977 41.2714C283.977 43.1001 283.567 44.7869 282.747 46.3319C281.928 47.8454 280.651 49.075 278.917 50.0209C277.182 50.9353 274.96 51.3925 272.248 51.3925H266.052V64.2094H259.999ZM266.052 46.4738H271.87C273.982 46.4738 275.496 46.0166 276.41 45.1022C277.356 44.1563 277.829 42.8794 277.829 41.2714C277.829 39.6318 277.356 38.3548 276.41 37.4405C275.496 36.4946 273.982 36.0216 271.87 36.0216H266.052V46.4738Z" fill="white"/>
<path d="M301.87 64.2094L313.977 31.1029H320.788L332.895 64.2094H326.463L323.815 56.5476H310.903L308.207 64.2094H301.87ZM312.558 51.8181H322.159L317.335 38.0553L312.558 51.8181Z" fill="white"/>
<path d="M173.456 91.2077V76.2194H183.241V78.4248H176.197V82.5359H182.599V84.6771H176.197V89.0022H183.241V91.2077H173.456Z" fill="white"/>
<path d="M185.114 91.2077V80.5874H187.533L187.747 82.386C188.076 81.7579 188.547 81.2583 189.16 80.8872C189.788 80.516 190.524 80.3305 191.366 80.3305C192.679 80.3305 193.7 80.7444 194.428 81.5724C195.156 82.4003 195.52 83.6136 195.52 85.2124V91.2077H192.779V85.4693C192.779 84.5557 192.593 83.8563 192.222 83.3709C191.851 82.8856 191.273 82.6429 190.488 82.6429C189.717 82.6429 189.082 82.9142 188.582 83.4566C188.097 83.999 187.854 84.7556 187.854 85.7262V91.2077H185.114Z" fill="white"/>
<path d="M202.216 91.2077C201.102 91.2077 200.21 90.9364 199.539 90.394C198.868 89.8516 198.533 88.888 198.533 87.5034V82.8785H196.713V80.5874H198.533L198.854 77.7397H201.273V80.5874H204.143V82.8785H201.273V87.5248C201.273 88.0387 201.381 88.3956 201.595 88.5954C201.823 88.781 202.208 88.8738 202.751 88.8738H204.078V91.2077H202.216Z" fill="white"/>
<path d="M210.727 91.4646C209.657 91.4646 208.707 91.2362 207.88 90.7794C207.052 90.3226 206.402 89.6803 205.931 88.8524C205.46 88.0244 205.224 87.068 205.224 85.9832C205.224 84.884 205.453 83.9062 205.91 83.0498C206.381 82.1933 207.023 81.5295 207.837 81.0585C208.665 80.5731 209.635 80.3305 210.749 80.3305C211.791 80.3305 212.711 80.5589 213.511 81.0157C214.31 81.4724 214.931 82.1005 215.374 82.8999C215.83 83.685 216.059 84.5629 216.059 85.5335C216.059 85.6906 216.052 85.8547 216.037 86.026C216.037 86.1973 216.03 86.3757 216.016 86.5613H207.944C208.001 87.3892 208.286 88.0387 208.8 88.5098C209.328 88.9808 209.964 89.2164 210.706 89.2164C211.263 89.2164 211.727 89.095 212.098 88.8524C212.483 88.5954 212.769 88.2671 212.954 87.8674H215.738C215.538 88.5383 215.202 89.1521 214.731 89.7088C214.275 90.2513 213.704 90.6795 213.018 90.9935C212.347 91.3076 211.584 91.4646 210.727 91.4646ZM210.749 82.5573C210.078 82.5573 209.485 82.75 208.972 83.1354C208.458 83.5066 208.129 84.0775 207.987 84.8484H213.275C213.232 84.1489 212.976 83.5922 212.504 83.1782C212.033 82.7643 211.448 82.5573 210.749 82.5573Z" fill="white"/>
<path d="M217.707 91.2077V80.5874H220.148L220.405 82.5787C220.79 81.8935 221.311 81.3511 221.968 80.9514C222.639 80.5375 223.424 80.3305 224.323 80.3305V83.2211H223.552C222.953 83.2211 222.418 83.3139 221.947 83.4994C221.476 83.685 221.104 84.0062 220.833 84.4629C220.576 84.9197 220.448 85.5549 220.448 86.3686V91.2077H217.707Z" fill="white"/>
<path d="M225.54 95.9182V80.5874H227.981L228.28 82.1077C228.623 81.6366 229.073 81.2226 229.629 80.8658C230.2 80.5089 230.935 80.3305 231.835 80.3305C232.834 80.3305 233.726 80.5731 234.511 81.0585C235.296 81.5438 235.917 82.2076 236.374 83.0498C236.831 83.892 237.059 84.8484 237.059 85.9189C237.059 86.9895 236.831 87.9459 236.374 88.7881C235.917 89.616 235.296 90.2727 234.511 90.758C233.726 91.2291 232.834 91.4646 231.835 91.4646C231.035 91.4646 230.336 91.3147 229.736 91.0149C229.137 90.7152 228.651 90.2941 228.28 89.7517V95.9182H225.54ZM231.257 89.0665C232.127 89.0665 232.848 88.7738 233.419 88.1886C233.99 87.6033 234.276 86.8468 234.276 85.9189C234.276 84.9911 233.99 84.2274 233.419 83.6279C232.848 83.0284 232.127 82.7286 231.257 82.7286C230.372 82.7286 229.644 83.0284 229.073 83.6279C228.516 84.2131 228.237 84.9697 228.237 85.8975C228.237 86.8254 228.516 87.5891 229.073 88.1886C229.644 88.7738 230.372 89.0665 231.257 89.0665Z" fill="white"/>
<path d="M238.851 91.2077V80.5874H241.292L241.548 82.5787C241.934 81.8935 242.455 81.3511 243.112 80.9514C243.782 80.5375 244.568 80.3305 245.467 80.3305V83.2211H244.696C244.096 83.2211 243.561 83.3139 243.09 83.4994C242.619 83.685 242.248 84.0062 241.977 84.4629C241.72 84.9197 241.591 85.5549 241.591 86.3686V91.2077H238.851Z" fill="white"/>
<path d="M248.161 78.9387C247.661 78.9387 247.247 78.7888 246.919 78.4891C246.605 78.1893 246.448 77.811 246.448 77.3542C246.448 76.8975 246.605 76.5263 246.919 76.2408C247.247 75.9411 247.661 75.7912 248.161 75.7912C248.66 75.7912 249.067 75.9411 249.381 76.2408C249.709 76.5263 249.873 76.8975 249.873 77.3542C249.873 77.811 249.709 78.1893 249.381 78.4891C249.067 78.7888 248.66 78.9387 248.161 78.9387ZM246.79 91.2077V80.5874H249.531V91.2077H246.79Z" fill="white"/>
<path d="M256.124 91.4646C255.182 91.4646 254.354 91.3147 253.64 91.0149C252.927 90.7009 252.356 90.2727 251.927 89.7302C251.499 89.1878 251.242 88.5597 251.157 87.846H253.919C254.004 88.26 254.233 88.6168 254.604 88.9166C254.989 89.2021 255.482 89.3448 256.081 89.3448C256.681 89.3448 257.116 89.2235 257.387 88.9808C257.673 88.7382 257.816 88.4598 257.816 88.1458C257.816 87.689 257.616 87.3821 257.216 87.2251C256.816 87.0538 256.26 86.8896 255.546 86.7326C255.089 86.6327 254.625 86.5113 254.154 86.3686C253.683 86.2258 253.248 86.0474 252.848 85.8333C252.463 85.6049 252.149 85.3194 251.906 84.9768C251.663 84.62 251.542 84.1846 251.542 83.6707C251.542 82.7286 251.913 81.9364 252.655 81.294C253.412 80.6517 254.468 80.3305 255.824 80.3305C257.08 80.3305 258.08 80.6231 258.822 81.2084C259.578 81.7936 260.028 82.6001 260.171 83.6279H257.58C257.423 82.8428 256.831 82.4502 255.803 82.4502C255.289 82.4502 254.889 82.5502 254.604 82.75C254.333 82.9499 254.197 83.1997 254.197 83.4994C254.197 83.8135 254.404 84.0633 254.818 84.2488C255.232 84.4344 255.781 84.6057 256.467 84.7627C257.209 84.934 257.887 85.1267 258.501 85.3408C259.129 85.5407 259.628 85.8476 260 86.2615C260.371 86.6612 260.556 87.2393 260.556 87.9959C260.571 88.6525 260.399 89.2449 260.042 89.7731C259.686 90.3012 259.172 90.7152 258.501 91.0149C257.83 91.3147 257.038 91.4646 256.124 91.4646Z" fill="white"/>
<path d="M267.488 91.4646C266.417 91.4646 265.468 91.2362 264.64 90.7794C263.812 90.3226 263.162 89.6803 262.691 88.8524C262.22 88.0244 261.985 87.068 261.985 85.9832C261.985 84.884 262.213 83.9062 262.67 83.0498C263.141 82.1933 263.783 81.5295 264.597 81.0585C265.425 80.5731 266.396 80.3305 267.509 80.3305C268.551 80.3305 269.472 80.5589 270.271 81.0157C271.07 81.4724 271.691 82.1005 272.134 82.8999C272.591 83.685 272.819 84.5629 272.819 85.5335C272.819 85.6906 272.812 85.8547 272.798 86.026C272.798 86.1973 272.791 86.3757 272.776 86.5613H264.704C264.761 87.3892 265.047 88.0387 265.56 88.5098C266.089 88.9808 266.724 89.2164 267.466 89.2164C268.023 89.2164 268.487 89.095 268.858 88.8524C269.243 88.5954 269.529 88.2671 269.714 87.8674H272.498C272.298 88.5383 271.963 89.1521 271.492 89.7088C271.035 90.2513 270.464 90.6795 269.779 90.9935C269.108 91.3076 268.344 91.4646 267.488 91.4646ZM267.509 82.5573C266.838 82.5573 266.246 82.75 265.732 83.1354C265.218 83.5066 264.89 84.0775 264.747 84.8484H270.036C269.993 84.1489 269.736 83.5922 269.265 83.1782C268.794 82.7643 268.208 82.5573 267.509 82.5573Z" fill="white"/>
<path d="M284.094 91.4646C282.995 91.4646 282.024 91.279 281.182 90.9079C280.34 90.5225 279.676 89.98 279.191 89.2806C278.705 88.5669 278.456 87.7033 278.441 86.6898H281.332C281.361 87.3892 281.61 87.9816 282.081 88.4669C282.567 88.938 283.231 89.1735 284.073 89.1735C284.801 89.1735 285.379 89.0022 285.807 88.6597C286.235 88.3028 286.449 87.8317 286.449 87.2465C286.449 86.6327 286.257 86.1545 285.871 85.8119C285.5 85.4693 285.001 85.1909 284.372 84.9768C283.744 84.7627 283.073 84.5343 282.36 84.2917C281.204 83.892 280.319 83.3781 279.705 82.75C279.105 82.1219 278.805 81.2869 278.805 80.2448C278.791 79.3598 278.998 78.6033 279.426 77.9752C279.869 77.3328 280.468 76.8404 281.225 76.4978C281.981 76.1409 282.852 75.9625 283.837 75.9625C284.836 75.9625 285.714 76.1409 286.471 76.4978C287.242 76.8546 287.841 77.3542 288.269 77.9966C288.712 78.6389 288.947 79.4026 288.976 80.2877H286.043C286.028 79.7595 285.821 79.2956 285.422 78.8959C285.036 78.4819 284.494 78.2749 283.794 78.2749C283.195 78.2607 282.688 78.4106 282.274 78.7246C281.874 79.0244 281.675 79.4669 281.675 80.0521C281.675 80.5517 281.832 80.9514 282.146 81.2512C282.46 81.5367 282.888 81.7793 283.43 81.9792C283.973 82.179 284.594 82.3931 285.293 82.6215C286.035 82.8785 286.713 83.1782 287.327 83.5208C287.941 83.8634 288.434 84.3202 288.805 84.8912C289.176 85.4479 289.361 86.1688 289.361 87.0538C289.361 87.8389 289.162 88.5669 288.762 89.2378C288.362 89.9087 287.77 90.4511 286.985 90.8651C286.2 91.2648 285.236 91.4646 284.094 91.4646Z" fill="white"/>
<path d="M295.764 91.2077C294.65 91.2077 293.758 90.9364 293.087 90.394C292.416 89.8516 292.081 88.888 292.081 87.5034V82.8785H290.261V80.5874H292.081L292.402 77.7397H294.821V80.5874H297.691V82.8785H294.821V87.5248C294.821 88.0387 294.928 88.3956 295.143 88.5954C295.371 88.781 295.756 88.8738 296.299 88.8738H297.626V91.2077H295.764Z" fill="white"/>
<path d="M304.211 91.4646C303.183 91.4646 302.255 91.2291 301.428 90.758C300.614 90.2869 299.964 89.6375 299.479 88.8095C299.008 87.9673 298.772 86.9967 298.772 85.8975C298.772 84.7984 299.015 83.8349 299.5 83.007C299.986 82.1648 300.635 81.5081 301.449 81.0371C302.277 80.566 303.205 80.3305 304.232 80.3305C305.246 80.3305 306.159 80.566 306.973 81.0371C307.801 81.5081 308.451 82.1648 308.922 83.007C309.407 83.8349 309.65 84.7984 309.65 85.8975C309.65 86.9967 309.407 87.9673 308.922 88.8095C308.451 89.6375 307.801 90.2869 306.973 90.758C306.145 91.2291 305.225 91.4646 304.211 91.4646ZM304.211 89.0879C304.925 89.0879 305.546 88.8238 306.074 88.2957C306.602 87.7532 306.866 86.9539 306.866 85.8975C306.866 84.8412 306.602 84.049 306.074 83.5208C305.546 82.9784 304.932 82.7072 304.232 82.7072C303.504 82.7072 302.876 82.9784 302.348 83.5208C301.834 84.049 301.577 84.8412 301.577 85.8975C301.577 86.9539 301.834 87.7532 302.348 88.2957C302.876 88.8238 303.497 89.0879 304.211 89.0879Z" fill="white"/>
<path d="M311.443 91.2077V80.5874H313.884L314.141 82.5787C314.527 81.8935 315.048 81.3511 315.704 80.9514C316.375 80.5375 317.16 80.3305 318.059 80.3305V83.2211H317.289C316.689 83.2211 316.154 83.3139 315.683 83.4994C315.212 83.685 314.841 84.0062 314.569 84.4629C314.312 84.9197 314.184 85.5549 314.184 86.3686V91.2077H311.443Z" fill="white"/>
<path d="M322.937 91.4646C322.024 91.4646 321.274 91.3219 320.689 91.0364C320.104 90.7366 319.668 90.344 319.383 89.8587C319.097 89.3734 318.955 88.8381 318.955 88.2528C318.955 87.2679 319.34 86.4685 320.111 85.8547C320.882 85.2409 322.038 84.934 323.58 84.934H326.277V84.6771C326.277 83.9491 326.07 83.4138 325.656 83.0712C325.243 82.7286 324.729 82.5573 324.115 82.5573C323.558 82.5573 323.073 82.6929 322.659 82.9641C322.245 83.2211 321.988 83.6065 321.888 84.1204H319.212C319.283 83.3495 319.54 82.6786 319.982 82.1077C320.439 81.5367 321.024 81.1013 321.738 80.8015C322.452 80.4875 323.251 80.3305 324.136 80.3305C325.649 80.3305 326.841 80.7088 327.712 81.4653C328.583 82.2219 329.018 83.2924 329.018 84.6771V91.2077H326.684L326.427 89.4947C326.113 90.0657 325.671 90.5368 325.1 90.9079C324.543 91.279 323.822 91.4646 322.937 91.4646ZM323.558 89.3234C324.343 89.3234 324.95 89.0665 325.378 88.5526C325.821 88.0387 326.099 87.4035 326.213 86.6469H323.879C323.151 86.6469 322.63 86.7826 322.316 87.0538C322.002 87.3107 321.845 87.6319 321.845 88.0173C321.845 88.4313 322.002 88.7524 322.316 88.9808C322.63 89.2092 323.044 89.3234 323.558 89.3234Z" fill="white"/>
<path d="M335.473 88.0387C334.959 88.0387 334.481 87.9816 334.039 87.8674L333.246 88.6597C333.489 88.7881 333.817 88.8952 334.231 88.9808C334.645 89.0665 335.316 89.1521 336.244 89.2378C337.657 89.3662 338.685 89.7017 339.327 90.2441C339.97 90.7866 340.291 91.536 340.291 92.4924C340.291 93.1204 340.119 93.7128 339.777 94.2695C339.434 94.8405 338.906 95.2973 338.192 95.6399C337.479 95.9968 336.565 96.1752 335.452 96.1752C333.939 96.1752 332.718 95.8897 331.79 95.3187C330.862 94.762 330.399 93.9198 330.399 92.7921C330.399 91.8357 330.862 91.0078 331.79 90.3084C331.505 90.1799 331.255 90.0443 331.041 89.9015C330.841 89.7588 330.663 89.6089 330.506 89.4519V88.9594L332.368 86.9895C331.541 86.2615 331.127 85.3266 331.127 84.1846C331.127 83.4709 331.298 82.8214 331.64 82.2361C331.997 81.6509 332.497 81.1869 333.139 80.8444C333.782 80.5018 334.56 80.3305 335.473 80.3305C336.073 80.3305 336.629 80.4161 337.143 80.5874H341.169V82.2575L339.349 82.386C339.634 82.9284 339.777 83.528 339.777 84.1846C339.777 84.8983 339.606 85.5478 339.263 86.1331C338.92 86.7183 338.421 87.1822 337.764 87.5248C337.122 87.8674 336.358 88.0387 335.473 88.0387ZM335.473 85.9404C336.03 85.9404 336.487 85.7905 336.843 85.4907C337.215 85.191 337.4 84.7627 337.4 84.206C337.4 83.6493 337.215 83.2211 336.843 82.9213C336.487 82.6215 336.03 82.4717 335.473 82.4717C334.888 82.4717 334.417 82.6215 334.06 82.9213C333.703 83.2211 333.525 83.6493 333.525 84.206C333.525 84.7627 333.703 85.191 334.06 85.4907C334.417 85.7905 334.888 85.9404 335.473 85.9404ZM332.904 92.5138C332.904 93.0419 333.146 93.4345 333.632 93.6914C334.131 93.9626 334.738 94.0982 335.452 94.0982C336.137 94.0982 336.694 93.9555 337.122 93.67C337.55 93.3988 337.764 93.0277 337.764 92.5566C337.764 92.1712 337.621 91.85 337.336 91.5931C337.065 91.3361 336.515 91.1791 335.687 91.122C335.102 91.0792 334.56 91.0149 334.06 90.9293C333.646 91.1577 333.346 91.4075 333.161 91.6787C332.989 91.9499 332.904 92.2283 332.904 92.5138Z" fill="white"/>
<path d="M347.252 91.4646C346.182 91.4646 345.232 91.2362 344.405 90.7794C343.577 90.3226 342.927 89.6803 342.456 88.8524C341.985 88.0244 341.749 87.068 341.749 85.9832C341.749 84.884 341.978 83.9062 342.435 83.0498C342.906 82.1933 343.548 81.5295 344.362 81.0585C345.19 80.5731 346.16 80.3305 347.274 80.3305C348.316 80.3305 349.236 80.5589 350.036 81.0157C350.835 81.4724 351.456 82.1005 351.899 82.8999C352.355 83.685 352.584 84.5629 352.584 85.5335C352.584 85.6906 352.577 85.8547 352.562 86.026C352.562 86.1973 352.555 86.3757 352.541 86.5613H344.469C344.526 87.3892 344.811 88.0387 345.325 88.5098C345.853 88.9808 346.489 89.2164 347.231 89.2164C347.788 89.2164 348.252 89.095 348.623 88.8524C349.008 88.5954 349.294 88.2671 349.479 87.8674H352.263C352.063 88.5383 351.727 89.1521 351.256 89.7088C350.8 90.2513 350.229 90.6795 349.543 90.9935C348.872 91.3076 348.109 91.4646 347.252 91.4646ZM347.274 82.5573C346.603 82.5573 346.01 82.75 345.497 83.1354C344.983 83.5066 344.654 84.0775 344.512 84.8484H349.8C349.757 84.1489 349.501 83.5922 349.029 83.1782C348.558 82.7643 347.973 82.5573 347.274 82.5573Z" fill="white"/>
<path d="M173.456 119.208V104.219H179.002C180.201 104.219 181.193 104.419 181.978 104.819C182.763 105.219 183.348 105.768 183.734 106.468C184.119 107.167 184.312 107.952 184.312 108.823C184.312 109.651 184.126 110.415 183.755 111.114C183.384 111.799 182.806 112.356 182.021 112.784C181.236 113.198 180.229 113.405 179.002 113.405H176.197V119.208H173.456ZM176.197 111.178H178.83C179.787 111.178 180.472 110.971 180.886 110.557C181.314 110.129 181.528 109.551 181.528 108.823C181.528 108.081 181.314 107.503 180.886 107.089C180.472 106.66 179.787 106.446 178.83 106.446H176.197V111.178Z" fill="white"/>
<path d="M185.741 119.208V108.587H188.182L188.439 110.579C188.824 109.894 189.345 109.351 190.002 108.951C190.673 108.537 191.458 108.33 192.357 108.33V111.221H191.586C190.987 111.221 190.451 111.314 189.98 111.499C189.509 111.685 189.138 112.006 188.867 112.463C188.61 112.92 188.482 113.555 188.482 114.369V119.208H185.741Z" fill="white"/>
<path d="M198.481 119.465C197.453 119.465 196.526 119.229 195.698 118.758C194.884 118.287 194.235 117.637 193.749 116.81C193.278 115.967 193.043 114.997 193.043 113.898C193.043 112.798 193.285 111.835 193.771 111.007C194.256 110.165 194.905 109.508 195.719 109.037C196.547 108.566 197.475 108.33 198.503 108.33C199.516 108.33 200.43 108.566 201.243 109.037C202.071 109.508 202.721 110.165 203.192 111.007C203.677 111.835 203.92 112.798 203.92 113.898C203.92 114.997 203.677 115.967 203.192 116.81C202.721 117.637 202.071 118.287 201.243 118.758C200.415 119.229 199.495 119.465 198.481 119.465ZM198.481 117.088C199.195 117.088 199.816 116.824 200.344 116.296C200.872 115.753 201.136 114.954 201.136 113.898C201.136 112.841 200.872 112.049 200.344 111.521C199.816 110.978 199.202 110.707 198.503 110.707C197.775 110.707 197.147 110.978 196.618 111.521C196.105 112.049 195.848 112.841 195.848 113.898C195.848 114.954 196.105 115.753 196.618 116.296C197.147 116.824 197.768 117.088 198.481 117.088Z" fill="white"/>
<path d="M208.06 119.208L204.163 108.587H207.032L209.73 116.617L212.428 108.587H215.297L211.379 119.208H208.06Z" fill="white"/>
<path d="M217.846 106.939C217.347 106.939 216.933 106.789 216.604 106.489C216.29 106.189 216.133 105.811 216.133 105.354C216.133 104.897 216.29 104.526 216.604 104.241C216.933 103.941 217.347 103.791 217.846 103.791C218.346 103.791 218.753 103.941 219.067 104.241C219.395 104.526 219.559 104.897 219.559 105.354C219.559 105.811 219.395 106.189 219.067 106.489C218.753 106.789 218.346 106.939 217.846 106.939ZM216.476 119.208V108.587H219.217V119.208H216.476Z" fill="white"/>
<path d="M226.302 119.465C225.303 119.465 224.411 119.222 223.626 118.737C222.841 118.251 222.22 117.587 221.763 116.745C221.306 115.903 221.078 114.947 221.078 113.876C221.078 112.806 221.306 111.856 221.763 111.028C222.22 110.186 222.841 109.53 223.626 109.058C224.411 108.573 225.303 108.33 226.302 108.33C227.102 108.33 227.801 108.48 228.401 108.78C229 109.08 229.485 109.501 229.857 110.043V103.791H232.597V119.208H230.156L229.857 117.687C229.514 118.158 229.057 118.572 228.486 118.929C227.93 119.286 227.202 119.465 226.302 119.465ZM226.88 117.066C227.765 117.066 228.486 116.774 229.043 116.189C229.614 115.589 229.899 114.825 229.899 113.898C229.899 112.97 229.614 112.213 229.043 111.628C228.486 111.028 227.765 110.729 226.88 110.729C226.01 110.729 225.289 111.021 224.718 111.606C224.147 112.192 223.861 112.948 223.861 113.876C223.861 114.804 224.147 115.568 224.718 116.167C225.289 116.767 226.01 117.066 226.88 117.066Z" fill="white"/>
<path d="M239.892 119.465C238.821 119.465 237.872 119.236 237.044 118.779C236.216 118.323 235.566 117.68 235.095 116.852C234.624 116.024 234.389 115.068 234.389 113.983C234.389 112.884 234.617 111.906 235.074 111.05C235.545 110.193 236.187 109.53 237.001 109.058C237.829 108.573 238.8 108.33 239.913 108.33C240.955 108.33 241.876 108.559 242.675 109.016C243.474 109.472 244.095 110.101 244.538 110.9C244.995 111.685 245.223 112.563 245.223 113.534C245.223 113.691 245.216 113.855 245.202 114.026C245.202 114.197 245.195 114.376 245.18 114.561H237.108C237.165 115.389 237.451 116.039 237.964 116.51C238.493 116.981 239.128 117.216 239.87 117.216C240.427 117.216 240.891 117.095 241.262 116.852C241.647 116.595 241.933 116.267 242.118 115.867H244.902C244.702 116.538 244.367 117.152 243.896 117.709C243.439 118.251 242.868 118.679 242.183 118.994C241.512 119.308 240.748 119.465 239.892 119.465ZM239.913 110.557C239.242 110.557 238.65 110.75 238.136 111.135C237.622 111.507 237.294 112.078 237.151 112.848H242.44C242.397 112.149 242.14 111.592 241.669 111.178C241.198 110.764 240.612 110.557 239.913 110.557Z" fill="white"/>
<path d="M246.871 119.208V108.587H249.312L249.569 110.579C249.955 109.894 250.476 109.351 251.132 108.951C251.803 108.537 252.588 108.33 253.488 108.33V111.221H252.717C252.117 111.221 251.582 111.314 251.111 111.499C250.64 111.685 250.269 112.006 249.997 112.463C249.74 112.92 249.612 113.555 249.612 114.369V119.208H246.871Z" fill="white"/>
<path d="M258.25 119.208L263.731 104.219H266.814L272.296 119.208H269.384L268.185 115.739H262.339L261.119 119.208H258.25ZM263.089 113.598H267.435L265.251 107.367L263.089 113.598Z" fill="white"/>
<path d="M278.207 119.465C277.122 119.465 276.165 119.229 275.338 118.758C274.51 118.287 273.853 117.63 273.368 116.788C272.897 115.946 272.661 114.982 272.661 113.898C272.661 112.813 272.897 111.849 273.368 111.007C273.853 110.165 274.51 109.508 275.338 109.037C276.165 108.566 277.122 108.33 278.207 108.33C279.563 108.33 280.705 108.687 281.633 109.401C282.56 110.101 283.153 111.071 283.41 112.313H280.519C280.376 111.799 280.091 111.399 279.663 111.114C279.249 110.814 278.756 110.664 278.185 110.664C277.429 110.664 276.786 110.95 276.258 111.521C275.73 112.092 275.466 112.884 275.466 113.898C275.466 114.911 275.73 115.703 276.258 116.274C276.786 116.845 277.429 117.131 278.185 117.131C278.756 117.131 279.249 116.988 279.663 116.702C280.091 116.417 280.376 116.01 280.519 115.482H283.41C283.153 116.681 282.56 117.645 281.633 118.373C280.705 119.101 279.563 119.465 278.207 119.465Z" fill="white"/>
<path d="M290.389 119.465C289.304 119.465 288.347 119.229 287.519 118.758C286.691 118.287 286.035 117.63 285.549 116.788C285.078 115.946 284.843 114.982 284.843 113.898C284.843 112.813 285.078 111.849 285.549 111.007C286.035 110.165 286.691 109.508 287.519 109.037C288.347 108.566 289.304 108.33 290.389 108.33C291.745 108.33 292.887 108.687 293.814 109.401C294.742 110.101 295.335 111.071 295.592 112.313H292.701C292.558 111.799 292.273 111.399 291.845 111.114C291.431 110.814 290.938 110.664 290.367 110.664C289.611 110.664 288.968 110.95 288.44 111.521C287.912 112.092 287.648 112.884 287.648 113.898C287.648 114.911 287.912 115.703 288.44 116.274C288.968 116.845 289.611 117.131 290.367 117.131C290.938 117.131 291.431 116.988 291.845 116.702C292.273 116.417 292.558 116.01 292.701 115.482H295.592C295.335 116.681 294.742 117.645 293.814 118.373C292.887 119.101 291.745 119.465 290.389 119.465Z" fill="white"/>
<path d="M302.527 119.465C301.457 119.465 300.508 119.236 299.68 118.779C298.852 118.323 298.202 117.68 297.731 116.852C297.26 116.024 297.025 115.068 297.025 113.983C297.025 112.884 297.253 111.906 297.71 111.05C298.181 110.193 298.823 109.53 299.637 109.058C300.465 108.573 301.435 108.33 302.549 108.33C303.591 108.33 304.512 108.559 305.311 109.016C306.11 109.472 306.731 110.101 307.174 110.9C307.631 111.685 307.859 112.563 307.859 113.534C307.859 113.691 307.852 113.855 307.838 114.026C307.838 114.197 307.83 114.376 307.816 114.561H299.744C299.801 115.389 300.087 116.039 300.6 116.51C301.129 116.981 301.764 117.216 302.506 117.216C303.063 117.216 303.527 117.095 303.898 116.852C304.283 116.595 304.569 116.267 304.754 115.867H307.538C307.338 116.538 307.003 117.152 306.531 117.709C306.075 118.251 305.504 118.679 304.819 118.994C304.148 119.308 303.384 119.465 302.527 119.465ZM302.549 110.557C301.878 110.557 301.286 110.75 300.772 111.135C300.258 111.507 299.93 112.078 299.787 112.848H305.076C305.033 112.149 304.776 111.592 304.305 111.178C303.834 110.764 303.248 110.557 302.549 110.557Z" fill="white"/>
<path d="M309.507 119.208V103.791H312.248V119.208H309.507Z" fill="white"/>
<path d="M319.552 119.465C318.481 119.465 317.532 119.236 316.704 118.779C315.876 118.323 315.227 117.68 314.756 116.852C314.284 116.024 314.049 115.068 314.049 113.983C314.049 112.884 314.277 111.906 314.734 111.05C315.205 110.193 315.848 109.53 316.661 109.058C317.489 108.573 318.46 108.33 319.573 108.33C320.615 108.33 321.536 108.559 322.335 109.016C323.135 109.472 323.756 110.101 324.198 110.9C324.655 111.685 324.883 112.563 324.883 113.534C324.883 113.691 324.876 113.855 324.862 114.026C324.862 114.197 324.855 114.376 324.84 114.561H316.768C316.825 115.389 317.111 116.039 317.625 116.51C318.153 116.981 318.788 117.216 319.53 117.216C320.087 117.216 320.551 117.095 320.922 116.852C321.308 116.595 321.593 116.267 321.779 115.867H324.562C324.362 116.538 324.027 117.152 323.556 117.709C323.099 118.251 322.528 118.679 321.843 118.994C321.172 119.308 320.408 119.465 319.552 119.465ZM319.573 110.557C318.902 110.557 318.31 110.75 317.796 111.135C317.282 111.507 316.954 112.078 316.811 112.848H322.1C322.057 112.149 321.8 111.592 321.329 111.178C320.858 110.764 320.273 110.557 319.573 110.557Z" fill="white"/>
<path d="M326.532 119.208V108.587H328.972L329.229 110.579C329.615 109.894 330.136 109.351 330.792 108.951C331.463 108.537 332.248 108.33 333.148 108.33V111.221H332.377C331.777 111.221 331.242 111.314 330.771 111.499C330.3 111.685 329.929 112.006 329.658 112.463C329.401 112.92 329.272 113.555 329.272 114.369V119.208H326.532Z" fill="white"/>
<path d="M338.025 119.465C337.112 119.465 336.363 119.322 335.777 119.036C335.192 118.737 334.757 118.344 334.471 117.859C334.186 117.373 334.043 116.838 334.043 116.253C334.043 115.268 334.428 114.469 335.199 113.855C335.97 113.241 337.126 112.934 338.668 112.934H341.366V112.677C341.366 111.949 341.159 111.414 340.745 111.071C340.331 110.729 339.817 110.557 339.203 110.557C338.646 110.557 338.161 110.693 337.747 110.964C337.333 111.221 337.076 111.606 336.976 112.12H334.3C334.371 111.35 334.628 110.679 335.071 110.108C335.527 109.537 336.113 109.101 336.826 108.802C337.54 108.487 338.34 108.33 339.225 108.33C340.738 108.33 341.93 108.709 342.8 109.465C343.671 110.222 344.106 111.292 344.106 112.677V119.208H341.773L341.516 117.495C341.202 118.066 340.759 118.537 340.188 118.908C339.631 119.279 338.911 119.465 338.025 119.465ZM338.646 117.323C339.432 117.323 340.038 117.066 340.466 116.553C340.909 116.039 341.187 115.403 341.301 114.647H338.968C338.24 114.647 337.719 114.783 337.405 115.054C337.091 115.311 336.933 115.632 336.933 116.017C336.933 116.431 337.091 116.752 337.405 116.981C337.719 117.209 338.133 117.323 338.646 117.323Z" fill="white"/>
<path d="M350.651 119.208C349.537 119.208 348.645 118.936 347.974 118.394C347.303 117.852 346.968 116.888 346.968 115.503V110.878H345.148V108.587H346.968L347.289 105.74H349.708V108.587H352.578V110.878H349.708V115.525C349.708 116.039 349.816 116.396 350.03 116.595C350.258 116.781 350.643 116.874 351.186 116.874H352.513V119.208H350.651Z" fill="white"/>
<path d="M359.098 119.465C358.07 119.465 357.142 119.229 356.315 118.758C355.501 118.287 354.851 117.637 354.366 116.81C353.895 115.967 353.659 114.997 353.659 113.898C353.659 112.798 353.902 111.835 354.387 111.007C354.873 110.165 355.522 109.508 356.336 109.037C357.164 108.566 358.092 108.33 359.119 108.33C360.133 108.33 361.047 108.566 361.86 109.037C362.688 109.508 363.338 110.165 363.809 111.007C364.294 111.835 364.537 112.798 364.537 113.898C364.537 114.997 364.294 115.967 363.809 116.81C363.338 117.637 362.688 118.287 361.86 118.758C361.032 119.229 360.112 119.465 359.098 119.465ZM359.098 117.088C359.812 117.088 360.433 116.824 360.961 116.296C361.489 115.753 361.753 114.954 361.753 113.898C361.753 112.841 361.489 112.049 360.961 111.521C360.433 110.978 359.819 110.707 359.119 110.707C358.391 110.707 357.763 110.978 357.235 111.521C356.721 112.049 356.464 112.841 356.464 113.898C356.464 114.954 356.721 115.753 357.235 116.296C357.763 116.824 358.384 117.088 359.098 117.088Z" fill="white"/>
<path d="M366.33 119.208V108.587H368.771L369.028 110.579C369.414 109.894 369.935 109.351 370.591 108.951C371.262 108.537 372.047 108.33 372.947 108.33V111.221H372.176C371.576 111.221 371.041 111.314 370.57 111.499C370.099 111.685 369.728 112.006 369.456 112.463C369.199 112.92 369.071 113.555 369.071 114.369V119.208H366.33Z" fill="white"/>
<defs>
<clipPath id="clip0_1_189">
<rect width="130" height="130" fill="white" transform="translate(10 10)"/>
</clipPath>
</defs>
</svg>
