<svg width="169" height="169" viewBox="0 0 169 169" fill="none" xmlns="http://www.w3.org/2000/svg">
<circle cx="84.5" cy="84.5" r="84.5" fill="#009BFF"/>
<path fill-rule="evenodd" clip-rule="evenodd" d="M123.182 47.6105C126.947 47.6105 130 50.6631 130 54.4288V111.212C130 114.977 126.947 118.03 123.182 118.03C119.416 118.03 116.364 114.977 116.364 111.212V54.4288C116.364 50.6631 119.416 47.6105 123.182 47.6105ZM45.8183 47.6106C49.5839 47.6106 52.6366 50.6632 52.6366 54.4289V111.212C52.6366 114.978 49.5839 118.03 45.8183 118.03C42.0526 118.03 39 114.978 39 111.212V54.4289C39 50.6632 42.0526 47.6106 45.8183 47.6106ZM110.659 76.464C110.659 72.6984 107.607 69.6457 103.841 69.6457C100.075 69.6457 97.0226 72.6984 97.0226 76.464V111.212C97.0226 114.977 100.075 118.03 103.841 118.03C107.607 118.03 110.659 114.977 110.659 111.212V76.464ZM65.159 69.6457C68.9246 69.6457 71.9773 72.6984 71.9773 76.464L71.9773 111.212C71.9773 114.977 68.9246 118.03 65.159 118.03C61.3934 118.03 58.3407 114.977 58.3407 111.212L58.3407 76.464C58.3407 72.6984 61.3934 69.6457 65.159 69.6457ZM91.3182 96.8043C91.3182 93.0387 88.2656 89.986 84.4999 89.986C80.7343 89.986 77.6817 93.0387 77.6817 96.8043V111.212C77.6817 114.978 80.7343 118.03 84.4999 118.03C88.2656 118.03 91.3182 114.978 91.3182 111.212V96.8043Z" fill="white"/>
</svg>
